{
	"asset":{
		"generator":"Khronos glTF Blender I/O v3.5.30",
		"version":"2.0"
	},
	"scene":0,
	"scenes":[
		{
			"name":"Scene",
			"nodes":[
				0
			]
		}
	],
	"nodes":[
		{
			"mesh":0,
			"name":"Icosphere.001"
		}
	],
	"materials":[
		{
			"doubleSided":true,
			"name":"Material.001",
			"pbrMetallicRoughness":{
				"baseColorTexture":{
					"index":0
				},
				"metallicFactor":0,
				"roughnessFactor":0.4000000059604645
			}
		}
	],
	"meshes":[
		{
			"name":"Icosphere.003",
			"primitives":[
				{
					"attributes":{
						"POSITION":0,
						"TEXCOORD_0":1,
						"NORMAL":2
					},
					"indices":3,
					"material":0
				}
			]
		}
	],
	"textures":[
		{
			"sampler":0,
			"source":0
		}
	],
	"images":[
		{
			"mimeType":"image/png",
			"name":"baseColorDyson",
			"uri":"baseColorDyson.png"
		}
	],
	"accessors":[
		{
			"bufferView":0,
			"componentType":5126,
			"count":4277,
			"max":[
				1.8246448040008545,
				1.8265303373336792,
				1.8256630897521973
			],
			"min":[
				-1.8247379064559937,
				-1.826506495475769,
				-1.825175166130066
			],
			"type":"VEC3"
		},
		{
			"bufferView":1,
			"componentType":5126,
			"count":4277,
			"type":"VEC2"
		},
		{
			"bufferView":2,
			"componentType":5126,
			"count":4277,
			"type":"VEC3"
		},
		{
			"bufferView":3,
			"componentType":5123,
			"count":27900,
			"type":"SCALAR"
		}
	],
	"bufferViews":[
		{
			"buffer":0,
			"byteLength":51324,
			"byteOffset":0,
			"target":34962
		},
		{
			"buffer":0,
			"byteLength":34216,
			"byteOffset":51324,
			"target":34962
		},
		{
			"buffer":0,
			"byteLength":51324,
			"byteOffset":85540,
			"target":34962
		},
		{
			"buffer":0,
			"byteLength":55800,
			"byteOffset":136864,
			"target":34963
		}
	],
	"samplers":[
		{
			"magFilter":9729,
			"minFilter":9987
		}
	],
	"buffers":[
		{
			"byteLength":192664,
			"uri":"dyson.bin"
		}
	]
}
